# xmcd CD database file
#
# Track frame offsets:
#	150
#	2977
#	20610
#	42442
#	71705
#	98289
#	120026
#	123521
#	139793
#	160999
#	179795
#	203673
#	229675
#	249196
#
# Disc length: 3765 seconds
#
# Revision: 0
# Processed by: cddbd v1.5.1PL0 Copyright (c) Steve Scherf et al.
# Submitted via: CDex 1.51
#
DISCID=b40eb30e
DTITLE=Povo - We Are Povo
DYEAR=2005
DGENRE=Jazz
TTITLE0=Intro
TTITLE1=Million Ways
TTITLE2=We Are Povo
TTITLE3=Eyes Closed
TTITLE4=Good and Bad
TTITLE5=Too Right To Be Wrong
TTITLE6=Interlude
TTITLE7=Perfect Day
TTITLE8=Ed The Bull
TTITLE9=Hot Lips
TTITLE10=Be Da Bau
TTITLE11=Uam Uam
TTITLE12=You Are
TTITLE13=Bonus Track: You Are (Nicola Conte New Samba Rmx)
EXTD=YEAR: 2005
EXTT0=
EXTT1=
EXTT2=
EXTT3=
EXTT4=
EXTT5=
EXTT6=
EXTT7=
EXTT8=
EXTT9=
EXTT10=
EXTT11=
EXTT12=
EXTT13=
PLAYORDER=
